<svg width="64" height="64" viewBox="0 0 64 64" fill="none" xmlns="http://www.w3.org/2000/svg">
<path d="M57.9814 8.00319C50.9335 0.990613 40.0416 0.251845 32.017 5.10694C23.8257 0.204956 12.8586 1.1457 5.96633 8.00319C-2.29107 16.2191 -1.80369 29.6919 6.35283 37.8072L11.7551 43.1825C11.758 43.1853 11.7605 43.1883 11.7633 43.191C12.8036 44.2261 14.1492 44.7765 15.5143 44.8427C15.581 46.2008 16.1341 47.5395 17.1742 48.5744C18.184 49.579 19.5059 50.1603 20.9222 50.2287C20.991 51.638 21.5754 52.9532 22.5851 53.9579C23.5956 54.9632 24.9186 55.5446 26.336 55.6124C26.4032 56.9697 26.9564 58.3072 27.9957 59.3415C30.2183 61.5528 33.835 61.5529 36.0576 59.3415L41.4684 53.9579C42.4789 52.9526 43.0632 51.6361 43.1313 50.2258C44.4954 50.1588 45.8397 49.6085 46.8792 48.5744C47.8889 47.5697 48.4732 46.2544 48.5419 44.8452C49.9583 44.7768 51.2802 44.1955 52.2899 43.1908C53.2997 42.1861 53.8839 40.8709 53.9528 39.4616C55.3692 39.3932 56.6911 38.8118 57.7008 37.8072C65.9558 29.5942 66.1467 16.1273 57.9814 8.00319ZM17.1742 40.5534C16.4132 41.3103 15.1755 41.3102 14.4146 40.5532L14.4147 40.5531L14.4117 40.5501C13.654 39.7927 13.6548 38.5634 14.4147 37.8074L20.1631 32.0879C20.9241 31.3307 22.1621 31.3308 22.9229 32.0879C23.6837 32.8449 23.6837 34.0767 22.9229 34.8338C21.6386 36.1116 17.9235 39.808 17.1746 40.553C17.1746 40.553 17.1744 40.5532 17.1742 40.5534ZM19.8257 45.9367C19.0649 45.1799 19.0647 43.9485 19.8252 43.1914C19.8254 43.1913 19.8254 43.1913 19.8255 43.1912L25.2374 37.8065C25.9985 37.0503 27.2357 37.0506 27.9962 37.8072C28.7571 38.5643 28.7571 39.7961 27.9962 40.5531L22.5855 45.9367C21.8246 46.6936 20.5867 46.6937 19.8257 45.9367ZM25.2364 51.3204C24.4736 50.5614 24.4736 49.3333 25.2364 48.5745L30.6473 43.1909C31.4098 42.4321 32.6443 42.432 33.407 43.1909C34.1698 43.9498 34.1698 45.1779 33.407 45.9368L27.9961 51.3204C27.2337 52.0791 25.9991 52.0793 25.2364 51.3204ZM38.8179 51.3204L33.4071 56.7039C32.6463 57.461 31.4084 57.4611 30.6474 56.7039C29.8865 55.9469 29.8865 54.7151 30.6474 53.958L36.0581 48.5745C36.8208 47.8157 38.0551 47.8156 38.8179 48.5745C39.5806 49.3334 39.5806 50.5616 38.8179 51.3204ZM55.0503 35.1696C54.2893 35.9266 53.0514 35.9267 52.2905 35.1696L41.4689 24.4022L38.8179 27.0399L49.6395 37.8071C50.402 38.5658 50.4024 39.7941 49.6395 40.553C48.8769 41.3118 47.6428 41.3119 46.8798 40.553L36.0581 29.7858L33.4071 32.4234L44.2288 43.1907C44.9914 43.9495 44.9915 45.1776 44.2288 45.9366C43.4678 46.6936 42.23 46.6936 41.4692 45.9368L41.469 45.9367C40.4593 44.932 39.1374 44.3507 37.721 44.2823C37.6523 42.8729 37.0679 41.5578 36.0581 40.5531C35.0476 39.5478 33.7246 38.9664 32.3073 38.8986C32.24 37.5413 31.6869 36.2037 30.6475 35.1694C29.6945 34.2212 28.4849 33.6808 27.239 33.5458C27.2611 32.0653 26.707 30.5775 25.574 29.4502C23.3462 27.2337 19.7402 27.2333 17.5121 29.4502L11.7636 35.1697C11.2792 35.6516 10.9006 36.1995 10.6273 36.7845L9.00421 35.1694C2.27207 28.4713 1.86494 17.3598 8.61758 10.641C13.8087 5.47595 22.0625 4.32775 28.7205 7.56428C28.4745 7.7874 28.2329 8.01612 27.9962 8.25156L20.1479 16.0605C17.7775 18.4189 17.7775 22.2564 20.1479 24.6149C22.197 26.6537 25.4241 26.9592 27.8189 25.3707L39.9046 17.3542L55.0504 32.4238C55.8129 33.1825 55.8131 34.4107 55.0503 35.1696ZM57.7013 29.786L40.3823 12.5538L25.7394 22.2668C24.8182 22.8777 23.5817 22.7558 22.799 21.977C21.8905 21.073 21.8905 19.602 22.799 18.698L30.6474 10.8891C37.3931 4.17726 48.5859 3.93039 55.3304 10.641C60.7673 16.0505 61.5664 24.2295 58.3729 30.5876C58.1762 30.3035 57.9519 30.0351 57.7013 29.786Z" fill="#00B6DA"/>
</svg>
