<svg width="64" height="64" viewBox="0 0 64 64" fill="none" xmlns="http://www.w3.org/2000/svg">
<path d="M38 15H34V19H38V15Z" fill="#00B6DA"/>
<path d="M51.3462 0H13.6538C10.5363 0 8 2.49638 8 5.56482V20.4043C8 23.4728 10.5363 25.9692 13.6538 25.9692H26.8462V35L40.6091 25.9692H51.3462C54.4637 25.9692 57 23.4728 57 20.4043V5.56482C57 2.49638 54.4637 0 51.3462 0ZM53.2308 20.4043C53.2308 21.4272 52.3853 22.2593 51.3462 22.2593H39.4678L30.6154 28.068V22.2593H13.6538C12.6147 22.2593 11.7692 21.4272 11.7692 20.4043V5.56482C11.7692 4.54201 12.6147 3.70988 13.6538 3.70988H51.3462C52.3853 3.70988 53.2308 4.54201 53.2308 5.56482V20.4043Z" fill="#00B6DA"/>
<path d="M30 15H15V19H30V15Z" fill="#00B6DA"/>
<path d="M15.5 30C11.3645 30 8 33.3645 8 37.5C8 41.6355 11.3645 45 15.5 45C19.6355 45 23 41.6355 23 37.5C23 33.3645 19.6355 30 15.5 30ZM15.5 41.25C13.4323 41.25 11.75 39.5677 11.75 37.5C11.75 35.4323 13.4323 33.75 15.5 33.75C17.5677 33.75 19.25 35.4323 19.25 37.5C19.25 39.5677 17.5677 41.25 15.5 41.25Z" fill="#00B6DA"/>
<path d="M17.4167 45H15.5H13.5833C8.29908 45 4 49.2056 4 54.375V64H27V54.375C27 49.2056 22.7009 45 17.4167 45ZM23.1667 60.25H7.83333V54.375C7.83333 51.2734 10.4128 48.75 13.5833 48.75H17.4167C20.5872 48.75 23.1667 51.2734 23.1667 54.375V60.25Z" fill="#00B6DA"/>
<path d="M48.5 30C44.3645 30 41 33.3645 41 37.5C41 41.6355 44.3645 45 48.5 45C52.6355 45 56 41.6355 56 37.5C56 33.3645 52.6355 30 48.5 30ZM48.5 41.25C46.4323 41.25 44.75 39.5677 44.75 37.5C44.75 35.4323 46.4323 33.75 48.5 33.75C50.5677 33.75 52.25 35.4323 52.25 37.5C52.25 39.5677 50.5677 41.25 48.5 41.25Z" fill="#00B6DA"/>
<path d="M51.4167 45H49.5H47.5833C42.2991 45 38 49.2056 38 54.375V64H61V54.375C61 49.2056 56.7009 45 51.4167 45ZM57.1667 60.25H41.8333V54.375C41.8333 51.2734 44.4128 48.75 47.5833 48.75H51.4167C54.5872 48.75 57.1667 51.2734 57.1667 54.375V60.25Z" fill="#00B6DA"/>
<path d="M49 8H15V12H49V8Z" fill="#00B6DA"/>
</svg>
