<svg width="64" height="64" viewBox="0 0 64 64" fill="none" xmlns="http://www.w3.org/2000/svg">
<path d="M45.7012 3.75H44.8988C44.3193 3.75 43.762 3.84362 43.2396 4.014C42.6563 1.71112 40.5428 0 38.0311 0H37.3689C36.0473 0 34.8364 0.474625 33.9 1.259C32.9636 0.474625 31.7527 0 30.4311 0H29.7689C28.3979 0 27.1459 0.510375 26.196 1.348C25.2 0.5085 23.9094 0 22.5 0C19.357 0 16.8 2.52338 16.8 5.625V11.5725C14.5885 12.3465 13 14.4306 13 16.875V24.9293C13 29.7236 15.0949 34.4629 19.0583 38.6345C20.0525 39.6809 20.6 41.0471 20.6 42.4816V64H47.2C47.2 62.5687 47.2 42.4514 47.2 41.1455C47.2 40.2769 47.4081 39.407 47.8018 38.6299C48.2371 37.5415 51 33.6255 51 27.4487C51 23.5631 51 12.8309 51 8.97913C51 6.09575 48.623 3.75 45.7012 3.75ZM43.4 17.2017V8.97913C43.4 8.1635 44.0723 7.5 44.8988 7.5H45.7012C46.5277 7.5 47.2 8.1635 47.2 8.97913C47.2 11.367 47.2 14.7119 47.2 17.2709C47.2 18.0865 46.5277 18.75 45.7012 18.75H44.8988C44.0723 18.75 43.4 18.0865 43.4 17.2709V17.2017ZM35.8 5.29825C35.8 4.4445 36.5039 3.75 37.3689 3.75H38.0311C38.8961 3.75 39.6 4.4445 39.6 5.29825C39.6 6.715 39.6 15.7428 39.6 17.2017C39.6 18.0555 38.8961 18.75 38.0311 18.75H37.3689C36.5038 18.75 35.8 18.0555 35.8 17.2017C35.8 17.2017 35.8 7.912 35.8 5.29825ZM28.2 5.29825C28.2 4.4445 28.9039 3.75 29.7689 3.75H30.4311C31.2961 3.75 32 4.4445 32 5.29825V11.25H28.2C28.2 11.25 28.1959 5.4065 28.1896 5.29825H28.2ZM20.6 5.625C20.6 4.59113 21.4523 3.75 22.5 3.75C23.5477 3.75 24.4 4.59113 24.4 5.625V11.25H20.6V5.625ZM47.2001 27.4487C47.2001 32.6051 44.8776 35.7827 44.4031 36.9529C43.7469 38.2479 43.4001 39.6976 43.4001 41.1455C43.4001 42.9253 43.4001 57.6891 43.4001 60.25H24.4V42.4816C24.4 40.0907 23.4875 37.8136 21.8304 36.0695C19.5356 33.6541 16.8 29.7606 16.8 24.9293V16.875C16.8 15.8411 17.6523 14.9875 18.7 14.9875H31.6745C30.8903 17.1701 28.7771 18.75 26.3 18.75H22.5V22.5C27.7383 22.5 32 26.7056 32 31.875H35.8C35.8 27.6478 33.7643 23.8807 30.6096 21.4786C31.4081 21.0757 32.1409 20.5637 32.7895 19.9641C33.7343 21.4839 35.4336 22.5 37.3689 22.5H38.0311C39.3424 22.5 40.5447 22.0331 41.4781 21.2598C42.4019 22.0325 43.5958 22.5 44.899 22.5H45.7013C46.2218 22.5 46.7245 22.4242 47.2001 22.2856V27.4487Z" fill="#00B6DA"/>
</svg>
