<svg width="32" height="33" viewBox="0 0 32 33" fill="none" xmlns="http://www.w3.org/2000/svg">
<g clip-path="url(#clip0)">
<path d="M32 16.2661C32 7.47581 24.8375 0.351562 16 0.351562C7.1625 0.351562 0 7.47581 0 16.2661C0 24.211 5.85 30.7944 13.5 31.9879V20.8664H9.4375V16.2661H13.5V12.7599C13.5 8.77198 15.8875 6.56818 19.5438 6.56818C21.2938 6.56818 23.125 6.87902 23.125 6.87902V10.7955H21.1063C19.1188 10.7955 18.5 12.0233 18.5 13.2821V16.2661H22.9375L22.2281 20.8664H18.5V31.9879C26.15 30.7944 32 24.211 32 16.2661Z" fill="white"/>
<path d="M22.2281 20.8663L22.9375 16.266H18.5V13.2821C18.5 12.0232 19.1188 10.7954 21.1063 10.7954H23.125V6.87895C23.125 6.87895 21.2938 6.56812 19.5438 6.56812C15.8875 6.56812 13.5 8.77191 13.5 12.7599V16.266H9.4375V20.8663H13.5V31.9879C14.3156 32.1153 15.15 32.1806 16 32.1806C16.85 32.1806 17.6844 32.1153 18.5 31.9879V20.8663H22.2281Z" fill="#003B6E"/>
</g>
<defs>
<clipPath id="clip0">
<rect width="32" height="31.8291" fill="white" transform="translate(0 0.351562)"/>
</clipPath>
</defs>
</svg>
