<svg width="32" height="33" viewBox="0 0 32 33" fill="none" xmlns="http://www.w3.org/2000/svg">
<path d="M0 16.2661C0 7.47675 7.16344 0.351562 16 0.351562C24.8366 0.351562 32 7.47675 32 16.2661C32 25.0555 24.8366 32.1807 16 32.1807C7.16344 32.1807 0 25.0555 0 16.2661Z" fill="white"/>
<path d="M24.1768 12.3359C23.9805 11.5859 23.4022 10.9954 22.6679 10.7949C21.3371 10.4307 16.0001 10.4307 16.0001 10.4307C16.0001 10.4307 10.6632 10.4307 9.3323 10.7949C8.59795 10.9954 8.01962 11.5859 7.82335 12.3359C7.4668 13.6952 7.4668 16.5312 7.4668 16.5312C7.4668 16.5312 7.4668 19.3672 7.82335 20.7266C8.01962 21.4765 8.59795 22.0671 9.3323 22.2676C10.6632 22.6318 16.0001 22.6318 16.0001 22.6318C16.0001 22.6318 21.3371 22.6318 22.6679 22.2676C23.4022 22.0671 23.9805 21.4765 24.1768 20.7266C24.5335 19.3672 24.5335 16.5312 24.5335 16.5312C24.5335 16.5312 24.5335 13.6952 24.1768 12.3359Z" fill="#003B6E"/>
<path d="M14.3999 19.4491V14.1443L18.6666 16.7968L14.3999 19.4491Z" fill="white"/>
</svg>
