<svg width="24" height="24" viewBox="0 0 24 24" fill="none" xmlns="http://www.w3.org/2000/svg">
<path fill-rule="evenodd" clip-rule="evenodd" d="M6.33614 5.93279C6.72672 6.32325 6.72683 6.95642 6.33637 7.34701C5.21781 8.46593 4.45614 9.8914 4.14767 11.4432C3.8392 12.995 3.99778 14.6034 4.60336 16.065C5.20894 17.5267 6.23432 18.7759 7.54985 19.6549C8.86539 20.5338 10.412 21.0029 11.9941 21.0029C13.5763 21.0029 15.1229 20.5338 16.4384 19.6549C17.754 18.7759 18.7794 17.5267 19.3849 16.065C19.9905 14.6034 20.1491 12.995 19.8406 11.4432C19.5321 9.8914 18.7705 8.46593 17.6519 7.34701C17.2615 6.95642 17.2616 6.32325 17.6522 5.93279C18.0427 5.54233 18.6759 5.54244 19.0664 5.93302C20.4646 7.33168 21.4167 9.11351 21.8022 11.0532C22.1878 12.993 21.9896 15.0035 21.2326 16.8305C20.4757 18.6576 19.1939 20.2192 17.5495 21.3179C15.9051 22.4165 13.9718 23.0029 11.9941 23.0029C10.0165 23.0029 8.0832 22.4165 6.43878 21.3179C4.79436 20.2192 3.51263 18.6576 2.75566 16.8305C1.99869 15.0035 1.80047 12.993 2.18605 11.0532C2.57164 9.11351 3.52372 7.33168 4.92192 5.93302C5.31238 5.54244 5.94555 5.54233 6.33614 5.93279Z" fill="#003B6E"/>
<path fill-rule="evenodd" clip-rule="evenodd" d="M12 1C12.5523 1 13 1.44772 13 2V12C13 12.5523 12.5523 13 12 13C11.4477 13 11 12.5523 11 12V2C11 1.44772 11.4477 1 12 1Z" fill="#003B6E"/>
</svg>
