<svg width="32" height="33" viewBox="0 0 32 33" fill="none" xmlns="http://www.w3.org/2000/svg">
<path d="M0 16.2661C0 7.47675 7.16344 0.351562 16 0.351562C24.8366 0.351562 32 7.47675 32 16.2661C32 25.0555 24.8366 32.1807 16 32.1807C7.16344 32.1807 0 25.0555 0 16.2661Z" fill="white"/>
<path d="M16.8371 21.4888C16.8371 21.4888 17.1451 21.4554 17.3029 21.2899C17.4473 21.1383 17.4423 20.8523 17.4423 20.8523C17.4423 20.8523 17.4231 19.5165 18.0583 19.3193C18.6844 19.1253 19.4882 20.611 20.3413 21.1823C20.9857 21.6143 21.4749 21.5197 21.4749 21.5197L23.7545 21.4888C23.7545 21.4888 24.9465 21.4171 24.3814 20.5018C24.3347 20.4268 24.0517 19.8246 22.6869 18.5874C21.257 17.2924 21.449 17.5018 23.1702 15.2614C24.2186 13.8971 24.6377 13.0642 24.5066 12.708C24.3822 12.3674 23.6109 12.4578 23.6109 12.4578L21.045 12.4733C21.045 12.4733 20.8547 12.4481 20.7136 12.5304C20.5759 12.6111 20.4865 12.7993 20.4865 12.7993C20.4865 12.7993 20.0809 13.8547 19.5391 14.7529C18.3964 16.6469 17.9398 16.7471 17.7528 16.6298C17.3179 16.3551 17.4264 15.5279 17.4264 14.9403C17.4264 13.1041 17.7119 12.3388 16.8713 12.1408C16.5925 12.0748 16.3872 12.0316 15.6735 12.0243C14.7578 12.0153 13.9832 12.0275 13.5441 12.237C13.2519 12.3763 13.0266 12.6877 13.1643 12.7056C13.3337 12.7276 13.7177 12.8066 13.9214 13.0772C14.1843 13.4269 14.1751 14.2109 14.1751 14.2109C14.1751 14.2109 14.3262 16.3722 13.8221 16.6404C13.4765 16.8246 13.0023 16.4489 11.9831 14.73C11.4614 13.8498 11.0674 12.8767 11.0674 12.8767C11.0674 12.8767 10.9915 12.695 10.8554 12.5972C10.691 12.479 10.4614 12.4423 10.4614 12.4423L8.02318 12.4578C8.02318 12.4578 7.65673 12.4676 7.52234 12.6233C7.40297 12.761 7.51316 13.0471 7.51316 13.0471C7.51316 13.0471 9.42219 17.4081 11.5841 19.6061C13.5666 21.6208 15.8171 21.4888 15.8171 21.4888H16.8371Z" fill="#003B6E"/>
</svg>
