<svg width="64" height="64" viewBox="0 0 64 64" fill="none" xmlns="http://www.w3.org/2000/svg">
<path d="M41 20.625C41 9.25237 31.8037 0 20.5 0C9.1963 0 0 9.25237 0 20.625C0 25.8377 0.963624 31.0204 1.89544 36.0322C2.79608 40.8761 3.72727 45.885 3.72727 50.75C3.72727 58.056 9.57946 64 16.7727 64C23.966 64 29.8182 58.056 29.8182 50.75C29.8182 49.8189 29.7216 48.8099 29.553 47.9818C28.6437 43.5109 31.9166 38.3069 34.9957 35.209C38.8676 31.3135 41 26.1341 41 20.625ZM25.9016 48.7336C26.0201 49.3166 26.0909 50.0704 26.0909 50.75C26.0909 55.9883 21.9108 60.25 16.7727 60.25C11.6347 60.25 7.45455 55.9883 7.45455 50.75C7.45455 45.5373 6.49092 40.3546 5.5591 35.3428C4.65847 30.4989 3.72727 25.49 3.72727 20.625C3.72727 11.3201 11.2515 3.75 20.5 3.75C29.7485 3.75 37.2727 11.3201 37.2727 20.625C37.2727 25.1325 35.5281 29.3701 32.3602 32.5574C28.4479 36.4936 24.6967 42.8101 25.9016 48.7336Z" fill="#00B6DA"/>
<path d="M23.43 8.22138C15.2677 6.73236 8 12.9521 8 20.9498C8 25.4032 8.85485 29.9286 9.76195 34.7303C10.0533 36.272 10.3545 37.8661 10.6248 39.4544C11.1723 42.6678 13.9054 45 17.124 45C20.2529 45 22.9691 42.782 23.5827 39.726C23.5873 39.1573 25.8237 33.1859 21.1767 27.5398C18.8343 24.6938 15.4339 22.9945 11.7676 22.8156C11.733 22.1879 11.7146 21.5661 11.7146 20.9498C11.7146 15.373 16.7616 10.7666 22.7609 11.8608C30.0491 13.1904 32.8326 22.2437 27.5679 27.4922L30.1957 30.1074C37.5069 22.8185 33.7534 10.1046 23.43 8.22138ZM18.3041 29.8855C21.712 34.0261 19.9524 38.3668 19.9402 39.0003C19.6726 40.3328 18.4882 41.3 17.124 41.3C15.7235 41.3 14.5305 40.2635 14.2873 38.8356C14.0113 37.2145 13.7068 35.6038 13.4105 34.0353C12.9244 31.4621 12.4534 28.9687 12.1316 26.554C14.5392 26.8134 16.7483 27.9953 18.3041 29.8855Z" fill="#00B6DA"/>
<path d="M64 30H45V34H64V30Z" fill="#00B6DA"/>
<path d="M47.8138 44.4349L46 48L61.2574 55.4974L63.0712 51.9323L47.8138 44.4349Z" fill="#00B6DA"/>
<path d="M61.2574 7.50258L46 15L47.8138 18.5651L63.0712 11.0677L61.2574 7.50258Z" fill="#00B6DA"/>
</svg>
