<svg width="64" height="64" viewBox="0 0 64 64" fill="none" xmlns="http://www.w3.org/2000/svg">
<path d="M58.2504 18.75C56.4936 16.4102 53.7221 15 50.75 15H47H32H17H13.25C10.2779 15 7.50638 16.4102 5.74963 18.75H0V30H3.875V39.375C3.875 41.868 5.48225 43.9264 7.625 44.6815V64C12.6679 64 51.254 64 56.375 64V44.6787C58.5574 43.9049 60.125 41.8195 60.125 39.375V30H64V18.75H58.2504ZM5.75 26.25H3.75V22.5H5.75C6.78387 22.5 7.625 23.3411 7.625 24.375C7.625 25.4089 6.78387 26.25 5.75 26.25ZM22.625 60.25H18.875V41.25H15.125V60.25H11.375L11.3746 41.25H9.49963C8.46338 41.25 7.625 40.4119 7.625 39.375V29.6775C9.80737 28.9035 11.375 26.8194 11.375 24.375C11.375 22.7119 10.6489 21.2156 9.49763 20.1849C10.5146 19.2753 11.8451 18.75 13.25 18.75H22.625V60.25ZM37.625 60.25H33.875V41.25H30.125V60.25H26.375V18.75H37.625V60.25ZM56.375 39.375C56.375 40.4089 55.534 41.25 54.5 41.25H52.625V60.25H48.875V41.25H45.125V60.25H41.375V18.75H50.75C52.1549 18.75 53.4854 19.2753 54.5024 20.1849C53.3511 21.2156 52.625 22.7119 52.625 24.375C52.625 26.8194 54.1926 28.9035 56.375 29.6775V39.375ZM60.25 26.25H58.25C57.2161 26.25 56.375 25.4089 56.375 24.375C56.375 23.3411 57.2161 22.5 58.25 22.5H60.25V26.25Z" fill="#00B6DA"/>
<path d="M47.5 0C43.3645 0 40 3.3645 40 7.5C40 11.6355 43.3645 15 47.5 15C51.6355 15 55 11.6355 55 7.5C55 3.3645 51.6355 0 47.5 0ZM47.5 11.25C45.4323 11.25 43.75 9.56775 43.75 7.5C43.75 5.43225 45.4323 3.75 47.5 3.75C49.5677 3.75 51.25 5.43225 51.25 7.5C51.25 9.56775 49.5677 11.25 47.5 11.25Z" fill="#00B6DA"/>
<path d="M17.5 0C13.3645 0 10 3.3645 10 7.5C10 11.6355 13.3645 15 17.5 15C21.6355 15 25 11.6355 25 7.5C25 3.3645 21.6355 0 17.5 0ZM17.5 11.25C15.4323 11.25 13.75 9.56775 13.75 7.5C13.75 5.43225 15.4323 3.75 17.5 3.75C19.5677 3.75 21.25 5.43225 21.25 7.5C21.25 9.56775 19.5677 11.25 17.5 11.25Z" fill="#00B6DA"/>
<path d="M32.5 0C28.3645 0 25 3.3645 25 7.5C25 11.6355 28.3645 15 32.5 15C36.6355 15 40 11.6355 40 7.5C40 3.3645 36.6355 0 32.5 0ZM32.5 11.25C30.4323 11.25 28.75 9.56775 28.75 7.5C28.75 5.43225 30.4323 3.75 32.5 3.75C34.5677 3.75 36.25 5.43225 36.25 7.5C36.25 9.56775 34.5677 11.25 32.5 11.25Z" fill="#00B6DA"/>
</svg>
