<svg width="64" height="64" viewBox="0 0 64 64" fill="none" xmlns="http://www.w3.org/2000/svg">
<path d="M53.5164 7.50775C51.0446 7.50775 50.1751 6.25887 48.4442 3.43425C47.9478 2.62438 47.3852 1.70638 46.7237 0.786875L46.1575 0H18.8422L18.2762 0.786875C17.6147 1.70625 17.0522 2.62425 16.5557 3.43425C14.8246 6.259 13.9553 7.50775 11.4835 7.50775H6V31.9287C6 48.2851 17.2106 55.7235 27.7185 61.4116L32.5 64L37.2815 61.4116C47.7895 55.7234 59 48.285 59 31.9287V7.50775H53.5164ZM35.4686 58.1134L32.5 59.7204L29.5314 58.1134C19.5403 52.705 9.78575 46.2281 9.78575 31.9287V11.2649H11.4836C16.1879 11.2649 18.0194 8.2765 19.7903 5.3865C20.118 4.85162 20.4533 4.29212 20.8153 3.7445H44.1846C44.5466 4.292 44.8819 4.85162 45.2096 5.3865C46.9805 8.2765 48.812 11.2649 53.5163 11.2649H55.214V31.9287H55.2141C55.2142 46.228 45.4597 52.705 35.4686 58.1134Z" fill="#00B6DA"/>
<path d="M22 41H41V36.5905H31.1119L37.254 30.8008C38.2439 29.9032 39.0426 28.9046 39.6501 27.805C40.2575 26.7055 40.5613 25.5273 40.5613 24.2707C40.5613 23.418 40.3813 22.5652 40.0213 21.7125C39.6838 20.8597 39.1551 20.0856 38.4352 19.3899C37.7377 18.6718 36.849 18.0996 35.7691 17.6732C34.7117 17.2244 33.4742 17 32.0568 17C30.1445 17 28.5246 17.4039 27.1972 18.2118C25.8922 18.9972 24.9023 20.0631 24.2274 21.4095C23.5524 22.756 23.2149 24.2707 23.2149 25.9537H27.9396C27.9396 25.0112 28.0971 24.1809 28.4121 23.4628C28.7496 22.7447 29.2108 22.195 29.7957 21.8135C30.4032 21.4095 31.1231 21.2076 31.9556 21.2076C32.5406 21.2076 33.058 21.3086 33.508 21.5105C33.958 21.69 34.3404 21.9369 34.6554 22.2511C34.9704 22.5652 35.2066 22.9243 35.3641 23.3282C35.5216 23.7321 35.6004 24.1473 35.6004 24.5736C35.6004 25.1795 35.4879 25.763 35.2629 26.324C35.0379 26.885 34.7117 27.446 34.2842 28.007C33.8567 28.568 33.3393 29.1739 32.7318 29.8247L22 41Z" fill="#00B6DA"/>
</svg>
