<svg width="24" height="24" viewBox="0 0 24 24" fill="none" xmlns="http://www.w3.org/2000/svg">
<path fill-rule="evenodd" clip-rule="evenodd" d="M19.0712 19.0711C18.6807 19.4616 18.0475 19.4616 17.657 19.0711L4.92908 6.34314C4.53855 5.95261 4.53855 5.31945 4.92908 4.92892C5.3196 4.5384 5.95277 4.5384 6.34329 4.92892L19.0712 17.6568C19.4617 18.0474 19.4617 18.6805 19.0712 19.0711Z" fill="#263238"/>
<path fill-rule="evenodd" clip-rule="evenodd" d="M19.0712 4.92894C19.4617 5.31946 19.4617 5.95263 19.0712 6.34315L6.34329 19.0711C5.95277 19.4616 5.3196 19.4616 4.92908 19.0711C4.53855 18.6806 4.53855 18.0474 4.92908 17.6569L17.657 4.92894C18.0475 4.53842 18.6807 4.53842 19.0712 4.92894Z" fill="#263238"/>
</svg>
