<svg width="32" height="33" viewBox="0 0 32 33" fill="none" xmlns="http://www.w3.org/2000/svg">
<path d="M0 16.2661C0 7.47675 7.16344 0.351562 16 0.351562C24.8366 0.351562 32 7.47675 32 16.2661C32 25.0555 24.8366 32.1807 16 32.1807C7.16344 32.1807 0 25.0555 0 16.2661Z" fill="white"/>
<mask id="mask0" style="mask-type:alpha" maskUnits="userSpaceOnUse" x="0" y="0" width="32" height="33">
<path fill-rule="evenodd" clip-rule="evenodd" d="M0 16.2661C0 7.47675 7.16344 0.351562 16 0.351562C24.8366 0.351562 32 7.47675 32 16.2661C32 25.0555 24.8366 32.1807 16 32.1807C7.16344 32.1807 0 25.0555 0 16.2661Z" fill="white"/>
</mask>
<g mask="url(#mask0)">
<path fill-rule="evenodd" clip-rule="evenodd" d="M16.0009 7.77832C13.6834 7.77832 13.3925 7.7884 12.4823 7.8296C11.5739 7.87098 10.9538 8.01403 10.4112 8.22393C9.84993 8.44073 9.37384 8.73073 8.89952 9.20269C8.42485 9.67447 8.13329 10.148 7.91462 10.7061C7.70307 11.246 7.55906 11.8629 7.51818 12.7662C7.47746 13.6715 7.4668 13.961 7.4668 16.2662C7.4668 18.5713 7.47711 18.8597 7.51835 19.7651C7.56013 20.6687 7.70395 21.2855 7.9148 21.8252C8.13294 22.3834 8.4245 22.857 8.89899 23.3288C9.37313 23.8009 9.84922 24.0916 10.4101 24.3084C10.9531 24.5183 11.5733 24.6614 12.4816 24.7027C13.3918 24.7439 13.6825 24.754 15.9999 24.754C18.3176 24.754 18.6075 24.7439 19.5178 24.7027C20.4262 24.6614 21.047 24.5183 21.59 24.3084C22.151 24.0916 22.6264 23.8009 23.1006 23.3288C23.5752 22.857 23.8668 22.3834 24.0855 21.8254C24.2952 21.2855 24.4392 20.6685 24.4819 19.7653C24.5228 18.8599 24.5335 18.5713 24.5335 16.2662C24.5335 13.961 24.5228 13.6717 24.4819 12.7663C24.4392 11.8627 24.2952 11.246 24.0855 10.7063C23.8668 10.148 23.5752 9.67447 23.1006 9.20269C22.6259 8.73055 22.1512 8.44055 21.5894 8.22393C21.0454 8.01403 20.425 7.87098 19.5165 7.8296C18.6063 7.7884 18.3165 7.77832 15.9983 7.77832H16.0009ZM15.7164 9.30791H15.7165L16.0009 9.30799C18.2793 9.30799 18.5494 9.31613 19.4491 9.3568C20.2811 9.39464 20.7327 9.53292 21.0335 9.6491C21.4317 9.80294 21.7156 9.98684 22.0141 10.2839C22.3128 10.581 22.4977 10.8639 22.6527 11.26C22.7695 11.5589 22.9087 12.008 22.9466 12.8356C22.9874 13.7303 22.9963 13.9991 22.9963 16.2643C22.9963 18.5295 22.9874 18.7983 22.9466 19.6931C22.9085 20.5206 22.7695 20.9698 22.6527 21.2686C22.498 21.6647 22.3128 21.9468 22.0141 22.2436C21.7154 22.5407 21.4319 22.7246 21.0335 22.8785C20.733 22.9952 20.2811 23.1331 19.4491 23.1709C18.5495 23.2116 18.2793 23.2205 16.0009 23.2205C13.7223 23.2205 13.4522 23.2116 12.5527 23.1709C11.7207 23.1328 11.2691 22.9945 10.9681 22.8783C10.5699 22.7245 10.2854 22.5405 9.98677 22.2435C9.6881 21.9464 9.50321 21.6642 9.34819 21.2679C9.23139 20.9691 9.09219 20.5199 9.05432 19.6923C9.01343 18.7976 9.00525 18.5288 9.00525 16.2622C9.00525 13.9956 9.01343 13.7282 9.05432 12.8335C9.09236 12.0059 9.23139 11.5567 9.34819 11.2575C9.50286 10.8614 9.6881 10.5785 9.98677 10.2814C10.2854 9.98437 10.5699 9.80046 10.9681 9.64627C11.2689 9.52956 11.7207 9.39163 12.5527 9.35361C13.3399 9.31825 13.6449 9.30764 15.2354 9.30587V9.30799C15.3839 9.30776 15.5438 9.30783 15.7162 9.30791H15.7163H15.7164ZM19.532 11.7354C19.532 11.1729 19.9907 10.7172 20.556 10.7172V10.7169C21.1214 10.7169 21.5801 11.1731 21.5801 11.7354C21.5801 12.2977 21.1214 12.7539 20.556 12.7539C19.9907 12.7539 19.532 12.2977 19.532 11.7354ZM16.0008 11.9073C13.5808 11.9074 11.6187 13.8591 11.6187 16.2662C11.6187 18.6734 13.5809 20.6242 16.001 20.6242C18.4211 20.6242 20.3825 18.6734 20.3825 16.2662C20.3825 13.859 18.4209 11.9073 16.0008 11.9073ZM18.8454 16.2662C18.8454 14.7035 17.5718 13.4369 16.0009 13.4369C14.4299 13.4369 13.1564 14.7035 13.1564 16.2662C13.1564 17.8286 14.4299 19.0954 16.0009 19.0954C17.5718 19.0954 18.8454 17.8286 18.8454 16.2662Z" fill="#003B6E"/>
</g>
</svg>
