<svg width="248" height="50" viewBox="0 0 248 50" fill="none" xmlns="http://www.w3.org/2000/svg">
<rect x="54" width="194" height="50" fill="#003B6E"/>
<path d="M19.8101 50H15.7163C15.6697 49.9347 15.6195 49.8721 15.5659 49.8125C10.8387 45.0827 6.10954 40.3538 1.37842 35.626C1.28927 35.5511 1.19496 35.4825 1.09619 35.4209V50C1.0492 49.891 1.01638 49.7765 0.998535 49.6592C0.993978 47.7432 0.993978 45.8272 0.998535 43.9111V0H1.75342C18.023 0 34.2918 0 50.5601 0C50.7093 0.017019 50.8562 0.0497528 50.9985 0.0976562H36.3735C36.5405 0.279297 36.6313 0.385742 36.73 0.488281C41.3778 5.13672 46.0252 9.7845 50.6724 14.4316C50.7749 14.5342 50.8892 14.627 50.9985 14.7246V18.8174C50.9282 18.8848 50.856 18.9512 50.7876 19.0195C44.3202 25.4557 37.8521 31.8942 31.3833 38.335C30.3091 39.4092 29.2349 40.4961 28.0991 41.6406L34.4917 47.7783C34.5819 47.657 34.6798 47.5415 34.7847 47.4326C40.0399 42.1702 45.298 36.9102 50.5591 31.6523C50.6929 31.5176 50.852 31.4082 50.9976 31.2861V35.3799C50.9116 35.4521 50.8198 35.5195 50.7407 35.5986C46.0259 40.3122 41.3104 45.027 36.5942 49.7432C36.5151 49.8223 36.4478 49.9141 36.3755 50H32.188C32.0842 49.8431 31.97 49.6933 31.8462 49.5518C25.4315 43.1064 19.0145 36.6611 12.5952 30.2158C11.5776 29.1934 10.5532 28.1768 9.46436 27.0908L3.37549 33.459C3.34033 33.5117 3.48096 33.5996 3.59521 33.7139C8.87972 38.9932 14.1623 44.2754 19.4429 49.5605C19.5767 49.6963 19.688 49.8535 19.8101 50ZM48.7036 16.6904L48.8521 16.7568C48.7886 16.6865 48.728 16.6123 48.6567 16.5449C43.2616 11.1465 37.8634 5.7513 32.4624 0.359374C32.2884 0.203768 32.0649 0.114848 31.8315 0.108398C27.9995 0.0937501 24.1675 0.0976557 20.3345 0.0986323C20.1997 0.0986323 20.0649 0.117187 19.7593 0.139648L42.7935 22.8818L48.7036 16.6904ZM17.6655 2.38379L17.7632 2.24414C17.6655 2.33008 17.5679 2.41211 17.4819 2.50195C12.1069 7.8737 6.73584 13.2493 1.36865 18.6289C1.20461 18.8152 1.11188 19.0536 1.10693 19.3018C1.09033 23.1182 1.09521 26.9336 1.09619 30.75C1.09619 30.8867 1.10889 31.0234 1.12451 31.3193L23.8491 8.29785L17.6655 2.38379ZM26.064 10.7129L20.0093 16.7676L34.2983 31.0576L40.353 25.0029L26.064 10.7129ZM17.7944 18.9834L11.7319 25.0488L26.022 39.3359L32.0835 33.2744L17.7944 18.9834ZM1.12061 14.5322L15.5298 0.124024H1.12061V14.5322Z" fill="white"/>
<path d="M19.8112 50C19.6891 49.8535 19.5778 49.6963 19.444 49.5625C14.1627 44.2767 8.88017 38.9925 3.59632 33.71C3.48206 33.5957 3.34143 33.5078 3.37659 33.4551L9.46546 27.0869C10.5543 28.1729 11.5787 29.1895 12.5963 30.2119C19.0156 36.6572 25.4326 43.1025 31.8473 49.5478C31.9711 49.6894 32.0853 49.8392 32.1891 49.9961L19.8112 50Z" fill="#003B6E"/>
<path d="M51 31.2861C50.8535 31.4082 50.6953 31.5176 50.5615 31.6523C45.2998 36.9102 40.04 42.1702 34.7822 47.4326C34.6774 47.5415 34.5795 47.657 34.4893 47.7783L28.0996 41.6406C29.2363 40.4961 30.3047 39.4102 31.3838 38.335C37.8506 31.8896 44.3187 25.4489 50.7881 19.0127C50.8564 18.9443 50.9287 18.8779 50.999 18.8105L51 31.2861Z" fill="#003B6E"/>
<path d="M51 14.7178C50.8906 14.6201 50.7764 14.5303 50.6738 14.4248C46.0254 9.77767 41.3779 5.12988 36.7314 0.481445C36.6338 0.383789 36.542 0.276367 36.375 0.0908203H51V14.7178Z" fill="#003B6E"/>
<path d="M1.09766 50V35.4209C1.19643 35.4825 1.29074 35.5511 1.37988 35.626C6.11035 40.3538 10.8395 45.0827 15.5674 49.8125C15.621 49.8721 15.6712 49.9347 15.7178 50H1.09766Z" fill="#003B6E"/>
<path d="M36.3799 50C36.4521 49.9141 36.5195 49.8223 36.5986 49.7432C41.3128 45.0277 46.0277 40.3118 50.7432 35.5957C50.8223 35.5166 50.9141 35.4492 51 35.377V50H36.3799Z" fill="#003B6E"/>
<path d="M48.7051 16.6904L42.7998 22.8818L19.7607 0.139648C20.0664 0.117187 20.2012 0.0986328 20.3359 0.0986328C24.1689 0.0986328 28.001 0.0986334 31.833 0.108399C32.0664 0.114849 32.2899 0.203768 32.4639 0.359375C37.8675 5.74805 43.2653 11.1432 48.6572 16.5449C48.7246 16.6123 48.7852 16.6865 48.8525 16.7568L48.7051 16.6904Z" fill="#003B6E"/>
<path d="M17.667 2.38379L23.8506 8.29785L1.12698 31.3193C1.11135 31.0264 1.09866 30.8867 1.09866 30.75C1.09866 26.9336 1.0928 23.1182 1.1094 19.3018C1.11435 19.0536 1.20708 18.8152 1.37112 18.6289C6.7357 13.2454 12.1068 7.86979 17.4844 2.50195C17.5742 2.41211 17.6719 2.33008 17.7657 2.24414L17.667 2.38379Z" fill="#003B6E"/>
<path d="M26.0635 10.7129L40.3535 25.0039L34.2988 31.0586L20.0107 16.7686L26.0635 10.7129Z" fill="#003B6E"/>
<path d="M17.7939 18.9834L32.085 33.2744L26.0234 39.3359L11.7334 25.0488L17.7939 18.9834Z" fill="#003B6E"/>
<path d="M1.12207 14.5322V0.124023H15.5312L1.12207 14.5322Z" fill="#003B6E"/>
<path d="M144.234 17.528C144.234 16.616 144.41 15.816 144.762 15.128C145.114 14.44 145.61 13.904 146.25 13.52C146.89 13.12 147.642 12.92 148.506 12.92C149.418 12.92 150.186 13.12 150.81 13.52C151.45 13.904 151.938 14.44 152.274 15.128C152.61 15.816 152.778 16.616 152.778 17.528C152.778 18.424 152.602 19.224 152.25 19.928C151.898 20.616 151.402 21.16 150.762 21.56C150.138 21.944 149.386 22.136 148.506 22.136C147.642 22.136 146.89 21.944 146.25 21.56C145.61 21.16 145.114 20.616 144.762 19.928C144.41 19.224 144.234 18.424 144.234 17.528ZM139.314 17.528C139.314 18.84 139.538 20.048 139.986 21.152C140.434 22.256 141.066 23.216 141.882 24.032C142.714 24.832 143.69 25.456 144.81 25.904C145.93 26.336 147.162 26.552 148.506 26.552C149.85 26.552 151.082 26.336 152.202 25.904C153.338 25.456 154.314 24.832 155.13 24.032C155.946 23.216 156.578 22.256 157.026 21.152C157.474 20.048 157.698 18.84 157.698 17.528C157.698 16.2 157.466 15 157.002 13.928C156.554 12.84 155.914 11.912 155.082 11.144C154.25 10.36 153.274 9.76 152.154 9.344C151.05 8.912 149.834 8.696 148.506 8.696C147.21 8.696 146.002 8.912 144.882 9.344C143.778 9.76 142.81 10.36 141.978 11.144C141.146 11.912 140.49 12.84 140.01 13.928C139.546 15 139.314 16.2 139.314 17.528Z" fill="white"/>
<path d="M161.696 9.128V25.928H166.352V9.128H161.696ZM164.672 12.896H167.912C168.648 12.896 169.216 13.056 169.616 13.376C170.016 13.696 170.216 14.152 170.216 14.744C170.216 15.352 170.016 15.816 169.616 16.136C169.216 16.456 168.648 16.616 167.912 16.616H164.672V20.36H167.912C169.448 20.36 170.712 20.136 171.704 19.688C172.712 19.24 173.456 18.592 173.936 17.744C174.432 16.896 174.68 15.896 174.68 14.744C174.68 13.576 174.432 12.576 173.936 11.744C173.456 10.912 172.712 10.272 171.704 9.824C170.712 9.36 169.448 9.128 167.912 9.128H164.672V12.896Z" fill="white"/>
<path d="M182.625 17.528C182.625 16.616 182.801 15.816 183.153 15.128C183.505 14.44 184.001 13.904 184.641 13.52C185.281 13.12 186.033 12.92 186.897 12.92C187.809 12.92 188.577 13.12 189.201 13.52C189.841 13.904 190.329 14.44 190.665 15.128C191.001 15.816 191.169 16.616 191.169 17.528C191.169 18.424 190.993 19.224 190.641 19.928C190.289 20.616 189.793 21.16 189.153 21.56C188.529 21.944 187.777 22.136 186.897 22.136C186.033 22.136 185.281 21.944 184.641 21.56C184.001 21.16 183.505 20.616 183.153 19.928C182.801 19.224 182.625 18.424 182.625 17.528ZM177.705 17.528C177.705 18.84 177.929 20.048 178.377 21.152C178.825 22.256 179.457 23.216 180.273 24.032C181.105 24.832 182.081 25.456 183.201 25.904C184.321 26.336 185.553 26.552 186.897 26.552C188.241 26.552 189.473 26.336 190.593 25.904C191.729 25.456 192.705 24.832 193.521 24.032C194.337 23.216 194.969 22.256 195.417 21.152C195.865 20.048 196.089 18.84 196.089 17.528C196.089 16.2 195.857 15 195.393 13.928C194.945 12.84 194.305 11.912 193.473 11.144C192.641 10.36 191.665 9.76 190.545 9.344C189.441 8.912 188.225 8.696 186.897 8.696C185.601 8.696 184.393 8.912 183.273 9.344C182.169 9.76 181.201 10.36 180.369 11.144C179.537 11.912 178.881 12.84 178.401 13.928C177.937 15 177.705 16.2 177.705 17.528Z" fill="white"/>
<path d="M208.456 16.4L211.6 25.208H217.048L208.456 8.288L199.888 25.208H205.336L208.456 16.4ZM213.64 25.928H218.344V21.968H198.592V25.928H203.296H213.64Z" fill="white"/>
<path d="M226.336 23.216H235.216L235.096 19.784H226.48L226.336 23.216ZM230.728 16.016L232.96 21.056L232.696 22.256L234.616 25.928H239.896L230.728 8L221.584 25.928H226.864L228.808 22.088L228.52 21.056L230.728 16.016Z" fill="white"/>
<path d="M74.2399 13.584V26.232H78.9919V9.432H63.9199V26.232H68.6719V13.584H74.2399Z" fill="#00B6DA"/>
<path d="M88.102 17.832C88.102 16.92 88.278 16.12 88.63 15.432C88.982 14.744 89.478 14.208 90.118 13.824C90.758 13.424 91.51 13.224 92.374 13.224C93.286 13.224 94.054 13.424 94.678 13.824C95.318 14.208 95.806 14.744 96.142 15.432C96.478 16.12 96.646 16.92 96.646 17.832C96.646 18.728 96.47 19.528 96.118 20.232C95.766 20.92 95.27 21.464 94.63 21.864C94.006 22.248 93.254 22.44 92.374 22.44C91.51 22.44 90.758 22.248 90.118 21.864C89.478 21.464 88.982 20.92 88.63 20.232C88.278 19.528 88.102 18.728 88.102 17.832ZM83.182 17.832C83.182 19.144 83.406 20.352 83.854 21.456C84.302 22.56 84.934 23.52 85.75 24.336C86.582 25.136 87.558 25.76 88.678 26.208C89.798 26.64 91.03 26.856 92.374 26.856C93.718 26.856 94.95 26.64 96.07 26.208C97.206 25.76 98.182 25.136 98.998 24.336C99.814 23.52 100.446 22.56 100.894 21.456C101.342 20.352 101.566 19.144 101.566 17.832C101.566 16.504 101.334 15.304 100.87 14.232C100.422 13.144 99.782 12.216 98.95 11.448C98.118 10.664 97.142 10.064 96.022 9.648C94.918 9.216 93.702 9 92.374 9C91.078 9 89.87 9.216 88.75 9.648C87.646 10.064 86.678 10.664 85.846 11.448C85.014 12.216 84.358 13.144 83.878 14.232C83.414 15.304 83.182 16.504 83.182 17.832Z" fill="#00B6DA"/>
<path d="M121.188 9.432H106.692V19.176C106.692 19.656 106.628 20.096 106.5 20.496C106.388 20.88 106.22 21.208 105.996 21.48C105.772 21.752 105.492 21.96 105.156 22.104C104.836 22.248 104.476 22.32 104.076 22.32V26.232C105.82 26.232 107.236 25.976 108.324 25.464C109.412 24.936 110.196 24.12 110.676 23.016C111.172 21.896 111.42 20.464 111.42 18.72V13.584H116.436V26.232H121.188V9.432Z" fill="#00B6DA"/>
<path d="M126.521 9.43201V26.232H131.177V13.584H137.033V9.43201H126.521Z" fill="white"/>
<path d="M70.5469 41H69.416V37.0566H65.1152V41H63.9902V32.4688H65.1152V36.1367H69.416V32.4688H70.5469V41Z" fill="white"/>
<path d="M79.3613 38.7734H75.7871L74.9844 41H73.8242L77.082 32.4688H78.0664L81.3301 41H80.1758L79.3613 38.7734ZM76.127 37.8477H79.0273L77.5742 33.8574L76.127 37.8477Z" fill="white"/>
<path d="M90.9941 41H89.8633V33.3945H85.6562V41H84.5312V32.4688H90.9941V41Z" fill="white"/>
<path d="M101.607 37.0098C101.607 37.8457 101.467 38.5762 101.186 39.2012C100.904 39.8223 100.506 40.2969 99.9902 40.625C99.4746 40.9531 98.873 41.1172 98.1855 41.1172C97.5137 41.1172 96.918 40.9531 96.3984 40.625C95.8789 40.293 95.4746 39.8223 95.1855 39.2129C94.9004 38.5996 94.7539 37.8906 94.7461 37.0859V36.4707C94.7461 35.6504 94.8887 34.9258 95.1738 34.2969C95.459 33.668 95.8613 33.1875 96.3809 32.8555C96.9043 32.5195 97.502 32.3516 98.1738 32.3516C98.8574 32.3516 99.459 32.5176 99.9785 32.8496C100.502 33.1777 100.904 33.6562 101.186 34.2852C101.467 34.9102 101.607 35.6387 101.607 36.4707V37.0098ZM100.488 36.459C100.488 35.4473 100.285 34.6719 99.8789 34.1328C99.4727 33.5898 98.9043 33.3184 98.1738 33.3184C97.4629 33.3184 96.9023 33.5898 96.4922 34.1328C96.0859 34.6719 95.877 35.4219 95.8652 36.3828V37.0098C95.8652 37.9902 96.0703 38.7617 96.4805 39.3242C96.8945 39.8828 97.4629 40.1621 98.1855 40.1621C98.9121 40.1621 99.4746 39.8984 99.873 39.3711C100.271 38.8398 100.477 38.0801 100.488 37.0918V36.459Z" fill="white"/>
<path d="M111.559 32.4688V41H110.434V33.3945H107.375L107.223 36.7754C107.164 37.9082 107.047 38.7598 106.871 39.3301C106.699 39.9004 106.445 40.3203 106.109 40.5898C105.773 40.8555 105.324 40.9922 104.762 41H104.393V40.0801L104.627 40.0684C104.99 40.041 105.27 39.9238 105.465 39.7168C105.66 39.5059 105.809 39.1719 105.91 38.7148C106.012 38.2578 106.084 37.5547 106.127 36.6055L106.303 32.4688H111.559Z" fill="white"/>
<path d="M116.693 35.9492H118.814C119.705 35.9609 120.4 36.1895 120.9 36.6348C121.4 37.0801 121.65 37.6855 121.65 38.4512C121.65 39.2207 121.398 39.834 120.895 40.291C120.391 40.748 119.703 40.9844 118.832 41H115.568V32.4688H116.693V35.9492ZM116.693 36.875V40.0801H118.75C119.309 40.0801 119.742 39.9316 120.051 39.6348C120.363 39.3379 120.52 38.9395 120.52 38.4395C120.52 37.959 120.369 37.5801 120.068 37.3027C119.771 37.0254 119.348 36.8828 118.797 36.875H116.693Z" fill="white"/>
<path d="M131.695 41H130.564V37.0566H126.264V41H125.139V32.4688H126.264V36.1367H130.564V32.4688H131.695V41Z" fill="white"/>
<path d="M136.871 35.9492H138.992C139.883 35.9609 140.578 36.1895 141.078 36.6348C141.578 37.0801 141.828 37.6855 141.828 38.4512C141.828 39.2207 141.576 39.834 141.072 40.291C140.568 40.748 139.881 40.9844 139.01 41H135.746V32.4688H136.871V35.9492ZM136.871 36.875V40.0801H138.928C139.486 40.0801 139.92 39.9316 140.229 39.6348C140.541 39.3379 140.697 38.9395 140.697 38.4395C140.697 37.959 140.547 37.5801 140.246 37.3027C139.949 37.0254 139.525 36.8828 138.975 36.875H136.871ZM143.984 41H142.859V32.4688H143.984V41Z" fill="white"/>
<path d="M152.898 37.0566H149.201V40.0801H153.496V41H148.076V32.4688H153.438V33.3945H149.201V36.1367H152.898V37.0566Z" fill="white"/>
<path d="M168.389 41H167.258V33.3945H163.051V41H161.926V32.4688H168.389V41Z" fill="white"/>
<path d="M179.002 37.0098C179.002 37.8457 178.861 38.5762 178.58 39.2012C178.299 39.8223 177.9 40.2969 177.385 40.625C176.869 40.9531 176.268 41.1172 175.58 41.1172C174.908 41.1172 174.312 40.9531 173.793 40.625C173.273 40.293 172.869 39.8223 172.58 39.2129C172.295 38.5996 172.148 37.8906 172.141 37.0859V36.4707C172.141 35.6504 172.283 34.9258 172.568 34.2969C172.854 33.668 173.256 33.1875 173.775 32.8555C174.299 32.5195 174.896 32.3516 175.568 32.3516C176.252 32.3516 176.854 32.5176 177.373 32.8496C177.896 33.1777 178.299 33.6562 178.58 34.2852C178.861 34.9102 179.002 35.6387 179.002 36.4707V37.0098ZM177.883 36.459C177.883 35.4473 177.68 34.6719 177.273 34.1328C176.867 33.5898 176.299 33.3184 175.568 33.3184C174.857 33.3184 174.297 33.5898 173.887 34.1328C173.48 34.6719 173.271 35.4219 173.26 36.3828V37.0098C173.26 37.9902 173.465 38.7617 173.875 39.3242C174.289 39.8828 174.857 40.1621 175.58 40.1621C176.307 40.1621 176.869 39.8984 177.268 39.3711C177.666 38.8398 177.871 38.0801 177.883 37.0918V36.459Z" fill="white"/>
<path d="M184.904 37.168H183.867V41H182.742V32.4688H183.867V36.2305H184.746L187.729 32.4688H189.129L185.871 36.6055L189.369 41H187.992L184.904 37.168Z" fill="white"/>
<path d="M193.525 37.6602V41H192.4V32.4688H195.547C196.48 32.4688 197.211 32.707 197.738 33.1836C198.27 33.6602 198.535 34.291 198.535 35.0762C198.535 35.9043 198.275 36.543 197.756 36.9922C197.24 37.4375 196.5 37.6602 195.535 37.6602H193.525ZM193.525 36.7402H195.547C196.148 36.7402 196.609 36.5996 196.93 36.3184C197.25 36.0332 197.41 35.623 197.41 35.0879C197.41 34.5801 197.25 34.1738 196.93 33.8691C196.609 33.5645 196.17 33.4062 195.611 33.3945H193.525V36.7402Z" fill="white"/>
<path d="M203.148 35.9492H205.27C206.16 35.9609 206.855 36.1895 207.355 36.6348C207.855 37.0801 208.105 37.6855 208.105 38.4512C208.105 39.2207 207.854 39.834 207.35 40.291C206.846 40.748 206.158 40.9844 205.287 41H202.023V32.4688H203.148V35.9492ZM203.148 36.875V40.0801H205.205C205.764 40.0801 206.197 39.9316 206.506 39.6348C206.818 39.3379 206.975 38.9395 206.975 38.4395C206.975 37.959 206.824 37.5801 206.523 37.3027C206.227 37.0254 205.803 36.8828 205.252 36.875H203.148ZM210.262 41H209.137V32.4688H210.262V41Z" fill="white"/>
<path d="M220.072 33.3945H217.33V41H216.211V33.3945H213.475V32.4688H220.072V33.3945Z" fill="white"/>
<path d="M228.717 32.4688H229.842V41H228.717V34.4258L224.516 41H223.385V32.4688H224.516V39.043L228.717 32.4688Z" fill="white"/>
<path d="M238.357 41V37.6777H236.389L234.625 41H233.424L235.404 37.3672C234.303 36.9336 233.752 36.1582 233.752 35.041C233.752 34.2285 234.018 33.5977 234.549 33.1484C235.084 32.6953 235.826 32.4688 236.775 32.4688H239.488V41H238.357ZM234.877 35.041C234.877 35.5566 235.037 35.9707 235.357 36.2832C235.682 36.5957 236.131 36.7539 236.705 36.7578H238.357V33.3945H236.758C236.148 33.3945 235.682 33.5391 235.357 33.8281C235.037 34.1172 234.877 34.5215 234.877 35.041Z" fill="white"/>
</svg>
